<?xml version="1.0" standalone="no"?>
<!DOCTYPE svg PUBLIC "-//W3C//DTD SVG 20010904//EN"
        "http://www.w3.org/TR/2001/REC-SVG-20010904/DTD/svg10.dtd">
<svg version="1.0" xmlns="http://www.w3.org/2000/svg"
     width="64.000000pt" height="64.000000pt" viewBox="0 0 64.000000 64.000000"
     preserveAspectRatio="xMidYMid meet">

    <g transform="translate(0.000000,64.000000) scale(0.100000,-0.100000)"
       fill="#000000" stroke="none">
        <path d="M156 370 c-51 -10 -66 -32 -66 -97 0 -94 49 -174 119 -193 20 -5 91
-10 159 -10 l122 0 0 130 0 131 -107 -3 -108 -3 0 -35 0 -35 63 -3 62 -3 0
-49 0 -50 -78 0 c-72 0 -81 2 -103 26 -22 23 -24 34 -24 115 0 49 0 88 0 88 0
-1 -18 -5 -39 -9z"/>
    </g>
</svg>
